<svg width="32" height="32" viewBox="0 0 32 32" fill="none" xmlns="http://www.w3.org/2000/svg">
<circle cx="16" cy="16" r="16" fill="#750619"/>
<path d="M13.9001 6H16.1001L16.2501 7.275C16.3334 7.30833 16.4128 7.35 16.4881 7.4C16.5628 7.45 16.6418 7.5 16.7251 7.55L17.9251 7.05L19.0251 8.95L18.0001 9.725V10.25L19.0251 11.05L17.9251 12.95L16.7251 12.45C16.6418 12.5 16.5628 12.55 16.4881 12.6C16.4128 12.65 16.3334 12.6917 16.2501 12.725L16.1001 14H13.9001L13.7501 12.725C13.7168 12.6917 13.6751 12.6667 13.6251 12.65C13.5751 12.6333 13.5334 12.6083 13.5001 12.575V18.075L13.1251 17.425L12.0001 17.9V12.8L11.0001 11.05L12.0001 10.275V9.75L10.9751 8.95L12.0751 7.05L13.2751 7.55C13.3584 7.5 13.4374 7.45 13.5121 7.4C13.5874 7.35 13.6668 7.30833 13.7501 7.275L13.9001 6ZM15.0001 11.5C15.4168 11.5 15.7708 11.354 16.0621 11.062C16.3541 10.7707 16.5001 10.4167 16.5001 10C16.5001 9.58333 16.3541 9.22933 16.0621 8.938C15.7708 8.646 15.4168 8.5 15.0001 8.5C14.5834 8.5 14.2294 8.646 13.9381 8.938C13.6461 9.22933 13.5001 9.58333 13.5001 10C13.5001 10.4167 13.6461 10.7707 13.9381 11.062C14.2294 11.354 14.5834 11.5 15.0001 11.5ZM20.9001 25L20.7501 23.725C20.6668 23.6917 20.5878 23.65 20.5131 23.6C20.4378 23.55 20.3584 23.5 20.2751 23.45L19.0751 23.95L17.9751 22.05L19.0001 21.275V20.75L17.9751 19.975L19.0751 18.05L20.2751 18.55C20.3584 18.5 20.4378 18.454 20.5131 18.412C20.5878 18.3707 20.6668 18.3333 20.7501 18.3L15.3501 14.5H16.5501L16.6501 13.6L21.5251 17H23.1001L23.2501 18.275C23.3334 18.3083 23.4128 18.35 23.4881 18.4C23.5628 18.45 23.6418 18.5 23.7251 18.55L24.9251 18.05L26.0251 19.95L25.0001 20.725V21.25L26.0251 22.05L24.9251 23.95L23.7251 23.45C23.6418 23.5 23.5628 23.55 23.4881 23.6C23.4128 23.65 23.3334 23.6917 23.2501 23.725L23.1001 25H20.9001ZM22.0001 22.5C22.4168 22.5 22.7708 22.354 23.0621 22.062C23.3541 21.7707 23.5001 21.4167 23.5001 21C23.5001 20.5833 23.3541 20.2293 23.0621 19.938C22.7708 19.646 22.4168 19.5 22.0001 19.5C21.5834 19.5 21.2294 19.646 20.9381 19.938C20.6461 20.2293 20.5001 20.5833 20.5001 21C20.5001 21.4167 20.6461 21.7707 20.9381 22.062C21.2294 22.354 21.5834 22.5 22.0001 22.5ZM8.9001 25L8.7501 23.725C8.66676 23.6917 8.58776 23.65 8.5131 23.6C8.43776 23.55 8.35843 23.5 8.2751 23.45L7.0751 23.95L5.9751 22.05L7.0001 21.275V20.75L5.9751 19.95L7.0751 18.05L8.2751 18.55C8.35843 18.5 8.43776 18.45 8.5131 18.4C8.58776 18.35 8.66676 18.3083 8.7501 18.275L8.9001 17H11.1001L11.2501 18.275C11.3334 18.3083 11.4128 18.35 11.4881 18.4C11.5628 18.45 11.6418 18.5 11.7251 18.55L12.9251 18.05L14.0251 19.95L13.0001 20.725V21.275L18.4751 18.1L17.3501 20.075L17.6501 20.3L13.7001 22.6L12.9251 23.95L11.7251 23.45C11.6418 23.5 11.5628 23.55 11.4881 23.6C11.4128 23.65 11.3334 23.6917 11.2501 23.725L11.1001 25H8.9001ZM10.0001 22.5C10.4168 22.5 10.7708 22.354 11.0621 22.062C11.3541 21.7707 11.5001 21.4167 11.5001 21C11.5001 20.5833 11.3541 20.2293 11.0621 19.938C10.7708 19.646 10.4168 19.5 10.0001 19.5C9.58343 19.5 9.22943 19.646 8.9381 19.938C8.6461 20.2293 8.5001 20.5833 8.5001 21C8.5001 21.4167 8.6461 21.7707 8.9381 22.062C9.22943 22.354 9.58343 22.5 10.0001 22.5Z" fill="white"/>
</svg>
