<svg width="40" height="40" viewBox="0 0 40 40" fill="none" xmlns="http://www.w3.org/2000/svg">
<path d="M36.1665 22.2494L34.4998 23.916L31.0832 20.4993L32.7498 18.8327C32.9212 18.6647 33.1516 18.5706 33.3915 18.5706C33.6314 18.5706 33.8618 18.6647 34.0332 18.8327L36.1665 20.966C36.5165 21.316 36.5165 21.8994 36.1665 22.2494ZM19.9998 31.566L30.0998 21.466L33.5165 24.8827L23.4332 34.9994H19.9998V31.566ZM19.9998 23.3327C12.6332 23.3327 6.6665 26.316 6.6665 29.9994V33.3327H16.6665V30.1827L23.3332 23.516C22.2332 23.3827 21.1165 23.3327 19.9998 23.3327ZM19.9998 6.66602C18.2317 6.66602 16.536 7.36839 15.2858 8.61864C14.0355 9.86888 13.3332 11.5646 13.3332 13.3327C13.3332 15.1008 14.0355 16.7965 15.2858 18.0467C16.536 19.297 18.2317 19.9993 19.9998 19.9993C21.7679 19.9993 23.4636 19.297 24.7139 18.0467C25.9641 16.7965 26.6665 15.1008 26.6665 13.3327C26.6665 11.5646 25.9641 9.86888 24.7139 8.61864C23.4636 7.36839 21.7679 6.66602 19.9998 6.66602Z" fill="#750619"/>
</svg>
