<svg width="40" height="40" viewBox="0 0 40 40" fill="none" xmlns="http://www.w3.org/2000/svg">
<path d="M30.8752 15.0007L29.0418 11.0007L25.0418 9.16732L29.0418 7.33398L30.8752 3.33398L32.7085 7.33398L36.7085 9.16732L32.7085 11.0007L30.8752 15.0007ZM34.2085 26.6673L32.8752 23.834L30.0418 22.5007L32.8752 21.1673L34.2085 18.334L35.5418 21.1673L38.3752 22.5007L35.5418 23.834L34.2085 26.6673ZM12.5418 36.6673L12.0418 32.7506C11.8196 32.6673 11.6046 32.5562 11.3968 32.4173C11.1879 32.2784 11.0141 32.1395 10.8752 32.0007L7.2085 33.584L3.0835 26.334L6.2085 24.0006V22.6673L3.0835 20.334L7.2085 13.084L10.8752 14.6673C11.0141 14.5284 11.1879 14.3895 11.3968 14.2507C11.6046 14.1118 11.8196 14.0007 12.0418 13.9173L12.5418 10.0007H20.8752L21.3752 13.9173C21.5974 14.0007 21.8129 14.1118 22.0218 14.2507C22.2296 14.3895 22.4029 14.5284 22.5418 14.6673L26.2085 13.084L30.3335 20.334L27.2085 22.6673V24.0006L30.3335 26.334L26.2085 33.584L22.5418 32.0007C22.4029 32.1395 22.2296 32.2784 22.0218 32.4173C21.8129 32.5562 21.5974 32.6673 21.3752 32.7506L20.8752 36.6673H12.5418ZM16.7085 28.334C18.0974 28.334 19.2779 27.8479 20.2502 26.8757C21.2224 25.9034 21.7085 24.7229 21.7085 23.334C21.7085 21.9451 21.2224 20.7645 20.2502 19.7923C19.2779 18.8201 18.0974 18.334 16.7085 18.334C15.3196 18.334 14.1391 18.8201 13.1668 19.7923C12.1946 20.7645 11.7085 21.9451 11.7085 23.334C11.7085 24.7229 12.1946 25.9034 13.1668 26.8757C14.1391 27.8479 15.3196 28.334 16.7085 28.334ZM16.7085 25.0007C16.2363 25.0007 15.8402 24.8407 15.5202 24.5207C15.2013 24.2018 15.0418 23.8062 15.0418 23.334C15.0418 22.8618 15.2013 22.4657 15.5202 22.1457C15.8402 21.8268 16.2363 21.6673 16.7085 21.6673C17.1807 21.6673 17.5768 21.8268 17.8968 22.1457C18.2157 22.4657 18.3752 22.8618 18.3752 23.334C18.3752 23.8062 18.2157 24.2018 17.8968 24.5207C17.5768 24.8407 17.1807 25.0007 16.7085 25.0007ZM15.4585 33.334H17.9585L18.2918 30.334C19.0974 30.1118 19.7852 29.8273 20.3552 29.4806C20.9241 29.1329 21.4863 28.6673 22.0418 28.084L24.7918 29.334L25.9585 27.2507L23.5418 25.4173C23.7641 24.7784 23.8752 24.084 23.8752 23.334C23.8752 22.584 23.7641 21.8895 23.5418 21.2507L25.9585 19.4173L24.7918 17.334L22.0418 18.584C21.4863 18.0007 20.9241 17.5351 20.3552 17.1873C19.7852 16.8407 19.0974 16.5562 18.2918 16.334L17.9585 13.334H15.4585L15.1252 16.334C14.3196 16.5562 13.6324 16.8407 13.0635 17.1873C12.4935 17.5351 11.9307 18.0007 11.3752 18.584L8.62516 17.334L7.4585 19.4173L9.87516 21.2507C9.65294 21.8895 9.53516 22.584 9.52183 23.334C9.50738 24.084 9.62516 24.7784 9.87516 25.4173L7.4585 27.2507L8.62516 29.334L11.3752 28.084C11.9307 28.6673 12.4935 29.1329 13.0635 29.4806C13.6324 29.8273 14.3196 30.1118 15.1252 30.334L15.4585 33.334Z" fill="#750619"/>
</svg>
