<?xml version="1.0" standalone="no"?>
<!DOCTYPE svg PUBLIC "-//W3C//DTD SVG 20010904//EN"
 "http://www.w3.org/TR/2001/REC-SVG-20010904/DTD/svg10.dtd">
<svg version="1.0" xmlns="http://www.w3.org/2000/svg"
 width="176.000000pt" height="176.000000pt" viewBox="0 0 176.000000 176.000000"
 preserveAspectRatio="xMidYMid meet">
<metadata>
Created by potrace 1.16, written by Peter Selinger 2001-2019
</metadata>
<g transform="translate(0.000000,176.000000) scale(0.100000,-0.100000)"
fill="#750619" stroke="none">
<path d="M270 1743 c-105 -37 -188 -113 -238 -221 l-27 -57 0 -585 0 -585 31
-65 c39 -83 111 -155 194 -194 l65 -31 585 0 585 0 65 31 c37 17 87 52 114 80
28 27 63 77 80 114 l31 65 0 585 0 585 -31 65 c-49 103 -132 178 -238 213 -44
15 -112 17 -610 16 -482 0 -567 -3 -606 -16z m1010 -591 c27 -22 29 -65 5 -92
-17 -19 -32 -20 -227 -20 -195 0 -209 1 -228 20 -11 11 -20 31 -20 45 0 14 9
34 20 45 19 19 33 20 224 20 182 0 206 -2 226 -18z m0 -230 c27 -22 29 -65 5
-92 -17 -19 -33 -20 -412 -20 -380 0 -394 1 -413 20 -33 33 -22 88 20 103 8 3
187 6 396 6 354 1 383 0 404 -17z m-365 -237 c14 -13 25 -29 25 -35 0 -16 -21
-53 -34 -62 -6 -4 -104 -8 -218 -8 -195 0 -209 1 -228 20 -20 20 -26 56 -12
76 19 29 53 33 245 34 197 0 198 0 222 -25z"/>
</g>
</svg>
