<svg width="40" height="40" viewBox="0 0 40 40" fill="none" xmlns="http://www.w3.org/2000/svg">
<path d="M21.6665 13.3327C21.6665 15.1008 20.9641 16.7965 19.7139 18.0467C18.4636 19.297 16.7679 19.9993 14.9998 19.9993C13.2317 19.9993 11.536 19.297 10.2858 18.0467C9.03555 16.7965 8.33317 15.1008 8.33317 13.3327C8.33317 11.5646 9.03555 9.86888 10.2858 8.61864C11.536 7.36839 13.2317 6.66602 14.9998 6.66602C16.7679 6.66602 18.4636 7.36839 19.7139 8.61864C20.9641 9.86888 21.6665 11.5646 21.6665 13.3327ZM28.3332 29.9993V33.3327H1.6665V29.9993C1.6665 26.316 7.63317 23.3327 14.9998 23.3327C22.3665 23.3327 28.3332 26.316 28.3332 29.9993ZM34.1665 24.166V26.666H31.6665V24.166H34.1665ZM30.8332 15.8327H28.3332V14.9993C28.3332 13.6733 28.86 12.4015 29.7976 11.4638C30.7353 10.5261 32.0071 9.99935 33.3332 9.99935C34.6593 9.99935 35.931 10.5261 36.8687 11.4638C37.8064 12.4015 38.3332 13.6733 38.3332 14.9993C38.3332 16.616 37.4998 18.1327 36.1832 19.016L35.6832 19.3327C34.7332 19.9993 34.1665 21.016 34.1665 22.166V22.4993H31.6665V22.166C31.6665 20.1827 32.6665 18.3327 34.3165 17.2493L34.7998 16.9327C35.4498 16.4993 35.8332 15.7827 35.8332 14.9993C35.8332 14.3363 35.5698 13.7004 35.1009 13.2316C34.6321 12.7627 33.9962 12.4993 33.3332 12.4993C32.6701 12.4993 32.0342 12.7627 31.5654 13.2316C31.0966 13.7004 30.8332 14.3363 30.8332 14.9993V15.8327Z" fill="#750619"/>
</svg>
