<svg width="32" height="32" viewBox="0 0 32 32" fill="none" xmlns="http://www.w3.org/2000/svg">
<circle cx="16" cy="16" r="16" fill="#750619"/>
<path fill-rule="evenodd" clip-rule="evenodd" d="M7.0002 7.59961C6.52281 7.59961 6.06497 7.78925 5.7274 8.12682C5.38984 8.46438 5.2002 8.92222 5.2002 9.39961V14.1996C5.2002 14.677 5.38984 15.1348 5.7274 15.4724C6.06497 15.81 6.52281 15.9996 7.0002 15.9996H14.2002C14.6776 15.9996 15.1354 15.81 15.473 15.4724C15.8106 15.1348 16.0002 14.677 16.0002 14.1996V9.39961C16.0002 8.92222 15.8106 8.46438 15.473 8.12682C15.1354 7.78925 14.6776 7.59961 14.2002 7.59961H7.0002ZM20.2002 9.99961C19.7228 9.99961 19.265 10.1893 18.9274 10.5268C18.5898 10.8644 18.4002 11.3222 18.4002 11.7996V20.1996C18.4002 20.677 18.5898 21.1348 18.9274 21.4724C19.265 21.81 19.7228 21.9996 20.2002 21.9996H25.0002C25.4776 21.9996 25.9354 21.81 26.273 21.4724C26.6106 21.1348 26.8002 20.677 26.8002 20.1996V11.7996C26.8002 11.3222 26.6106 10.8644 26.273 10.5268C25.9354 10.1893 25.4776 9.99961 25.0002 9.99961H20.2002ZM8.2002 18.3996C7.72281 18.3996 7.26497 18.5893 6.9274 18.9268C6.58984 19.2644 6.4002 19.7222 6.4002 20.1996V22.5996C6.4002 23.077 6.58984 23.5348 6.9274 23.8724C7.26497 24.21 7.72281 24.3996 8.2002 24.3996H15.4002C15.8776 24.3996 16.3354 24.21 16.673 23.8724C17.0106 23.5348 17.2002 23.077 17.2002 22.5996V20.1996C17.2002 19.7222 17.0106 19.2644 16.673 18.9268C16.3354 18.5893 15.8776 18.3996 15.4002 18.3996H8.2002Z" fill="white"/>
</svg>
