<svg width="32" height="32" viewBox="0 0 32 32" fill="none" xmlns="http://www.w3.org/2000/svg">
<circle cx="16" cy="16" r="16" fill="#750619"/>
<g clip-path="url(#clip0_631_262)">
<path fill-rule="evenodd" clip-rule="evenodd" d="M14.9044 6.4648C15.142 6.4648 15.3328 6.6568 15.3328 6.8932C15.3328 6.9148 15.3244 6.934 15.3208 6.9556H15.3328V16.2616C15.3328 16.498 15.5248 16.69 15.7612 16.69H25.0972C25.3324 16.69 25.5244 16.882 25.5244 17.1184L25.522 17.1304L25.5244 17.2324C25.5244 23.1784 20.7064 28 14.7616 28C8.818 28 4 23.1784 4 17.2324C4 11.284 8.818 6.4648 14.7616 6.4648L14.8768 6.4672C14.8864 6.4696 14.8948 6.4648 14.9044 6.4648ZM17.356 4C23.2084 4.06 27.94 8.7952 28.0012 14.6512C28.0012 14.8876 27.8092 15.0796 27.5728 15.0796C27.5512 15.0796 27.532 15.07 27.5104 15.0676V15.0796H17.356C17.2424 15.0796 17.1334 15.0345 17.0531 14.9541C16.9727 14.8738 16.9276 14.7648 16.9276 14.6512V4.492H16.9396C16.9372 4.4704 16.9276 4.4512 16.9276 4.4296C16.9276 4.1932 17.1196 4.0012 17.356 4.0012V4Z" fill="white"/>
</g>
<defs>
<clipPath id="clip0_631_262">
<rect width="24" height="24" fill="white" transform="translate(4 4)"/>
</clipPath>
</defs>
</svg>
