<svg width="32" height="32" viewBox="0 0 32 32" fill="none" xmlns="http://www.w3.org/2000/svg">
<circle cx="16" cy="16" r="16" fill="#750619"/>
<path d="M27.7844 16.5343L25.5344 18.7843C25.391 18.9229 25.1994 19.0004 25 19.0004C24.8006 19.0004 24.609 18.9229 24.4657 18.7843L22.2157 16.5343C22.1139 16.4259 22.0449 16.2908 22.0167 16.1448C21.9885 15.9988 22.0022 15.8478 22.0563 15.7093C22.1137 15.5728 22.2101 15.4563 22.3336 15.3746C22.4571 15.2928 22.602 15.2495 22.75 15.2499H24.2125C24.0597 13.5389 23.3761 11.9185 22.2571 10.6151C21.1381 9.31172 19.6399 8.39061 17.9717 7.98054C16.3036 7.57048 14.549 7.69197 12.9533 8.32802C11.3576 8.96408 10.0005 10.0829 9.0719 11.528C9.01786 11.6107 8.94804 11.6818 8.86643 11.7374C8.78483 11.793 8.69305 11.8319 8.59637 11.852C8.49968 11.872 8.4 11.8728 8.30302 11.8542C8.20605 11.8356 8.1137 11.798 8.03127 11.7437C7.9482 11.6913 7.87638 11.6228 7.81999 11.5424C7.76361 11.462 7.72378 11.3711 7.70284 11.2752C7.68191 11.1792 7.68027 11.08 7.69802 10.9834C7.71578 10.8868 7.75258 10.7947 7.80627 10.7124C8.9126 8.99667 10.5296 7.67147 12.4292 6.9237C14.3288 6.17592 16.4153 6.0433 18.3943 6.54453C20.3733 7.04575 22.1451 8.15555 23.4598 9.71741C24.7744 11.2793 25.5657 13.2144 25.7219 15.2499H27.25C27.3981 15.2495 27.543 15.2928 27.6664 15.3746C27.7899 15.4563 27.8864 15.5728 27.9438 15.7093C27.9978 15.8478 28.0115 15.9988 27.9833 16.1448C27.9551 16.2908 27.8861 16.4259 27.7844 16.5343ZM23.9688 20.2562C23.8863 20.2018 23.794 20.1643 23.697 20.1457C23.6001 20.1271 23.5004 20.1278 23.4037 20.1479C23.307 20.1679 23.2152 20.2068 23.1336 20.2624C23.052 20.318 22.9822 20.3892 22.9281 20.4718C22.7017 20.8285 22.4478 21.167 22.1688 21.4843C21.5617 20.6134 20.7793 19.879 19.8719 19.328C18.83 20.3262 17.4429 20.8834 16 20.8834C14.5572 20.8834 13.17 20.3262 12.1281 19.328C11.2207 19.879 10.4384 20.6134 9.83127 21.4843C8.65939 20.1665 7.9428 18.5065 7.78753 16.7499H9.25002C9.39809 16.7504 9.54299 16.707 9.66644 16.6253C9.7899 16.5435 9.8864 16.427 9.94378 16.2905C9.99781 16.152 10.0115 16.001 9.98331 15.855C9.95511 15.709 9.88614 15.574 9.7844 15.4655L7.5344 13.2155C7.3922 13.0747 7.20016 12.9957 7.00002 12.9957C6.79989 12.9957 6.60784 13.0747 6.46565 13.2155L4.21565 15.4655C4.11391 15.574 4.04494 15.709 4.01674 15.855C3.98853 16.001 4.00224 16.152 4.05627 16.2905C4.11365 16.427 4.21015 16.5435 4.33361 16.6253C4.45706 16.707 4.60196 16.7504 4.75002 16.7499H6.27815C6.47014 19.2618 7.62971 21.6011 9.51252 23.2749L9.55002 23.303C10.6012 24.2336 11.8411 24.926 13.1848 25.3328C14.5285 25.7395 15.9442 25.8509 17.335 25.6595C18.7258 25.4681 20.0587 24.9783 21.2426 24.2236C22.4264 23.469 23.4331 22.4674 24.1938 21.2874C24.2475 21.2052 24.2843 21.1131 24.302 21.0164C24.3198 20.9198 24.3181 20.8207 24.2972 20.7247C24.2763 20.6287 24.2364 20.5379 24.1801 20.4574C24.1237 20.377 24.0519 20.3086 23.9688 20.2562ZM16 19.3749C16.8159 19.3749 17.6134 19.133 18.2918 18.6797C18.9701 18.2265 19.4988 17.5822 19.811 16.8285C20.1232 16.0747 20.2049 15.2453 20.0458 14.4452C19.8866 13.645 19.4937 12.91 18.9168 12.3331C18.3399 11.7562 17.6049 11.3633 16.8048 11.2042C16.0046 11.045 15.1752 11.1267 14.4215 11.4389C13.6677 11.7511 13.0235 12.2798 12.5702 12.9582C12.117 13.6365 11.875 14.4341 11.875 15.2499C11.875 16.3439 12.3096 17.3931 13.0832 18.1667C13.8568 18.9403 14.906 19.3749 16 19.3749Z" fill="white"/>
</svg>
